<svg xmlns="http://www.w3.org/2000/svg" width="131" height="32" viewBox="0 0 131 32" fill="none"><path fill-rule="evenodd" clip-rule="evenodd" d="M0.319336 16.1616C0.319336 7.61459 7.27231 0.661621 15.8193 0.661621C24.3664 0.661621 31.3193 7.61459 31.3193 16.1616C31.3193 24.7087 24.3664 31.6616 15.8193 31.6616C7.27231 31.6616 0.319336 24.7087 0.319336 16.1616ZM27.6629 11.5945C27.6152 11.4644 27.5224 11.356 27.4027 11.2875L27.3992 11.2866C27.2796 11.219 27.1391 11.1947 27.0029 11.219C26.8667 11.2442 26.7436 11.3161 26.6551 11.4219C26.5667 11.5278 26.5189 11.6622 26.5189 11.8009C26.5198 11.8712 26.532 11.9397 26.5562 12.0074C27.0437 13.3031 27.29 14.663 27.2891 16.048C27.2891 18.8511 26.27 21.5492 24.4193 23.6445C22.6049 25.6991 20.1228 27.033 17.4195 27.4094V22.1823C17.6944 22.1259 17.9676 22.053 18.2338 21.9637V26.4874L18.3414 26.4614C20.6353 25.9038 22.7142 24.5751 24.1938 22.7182C25.7185 20.805 26.525 18.4989 26.525 16.0489C26.5276 14.1348 26.0159 12.2519 25.0446 10.6032C24.0741 8.95367 22.6752 7.59291 21.0005 6.66666C20.9293 6.6285 20.8539 6.60508 20.7741 6.59727C20.6943 6.58947 20.6154 6.59814 20.5391 6.62243C20.4627 6.64671 20.3934 6.68574 20.3327 6.73777C20.2719 6.79068 20.2234 6.85312 20.1878 6.92597C20.1488 7.00663 20.128 7.09596 20.128 7.18529C20.128 7.29023 20.1557 7.39344 20.2086 7.48363C20.2615 7.57383 20.3379 7.64928 20.4298 7.70045C21.9215 8.52437 23.1669 9.73509 24.0325 11.2025C24.898 12.67 25.3551 14.3464 25.3551 16.0497C25.3551 18.002 24.7688 19.8788 23.6578 21.4789C22.5989 23.0053 21.1392 24.1787 19.4307 24.8795V21.0487C19.7073 20.9516 19.9502 20.7816 20.1384 20.5553C20.3396 20.3124 20.4645 20.0184 20.5009 19.7053C20.5373 19.3914 20.4818 19.0765 20.3405 18.7947C20.2078 18.5293 20.0066 18.3073 19.7568 18.1494C19.9856 16.0478 20.6543 15.6323 21.1443 15.3279L21.1453 15.3273C21.4367 15.1469 21.6882 14.9908 21.6882 14.5363V13.8894C21.6882 13.2189 21.0221 11.6544 19.5339 9.67178C17.4732 6.92684 16.2981 6.63977 15.9893 6.61722C15.8735 6.60547 15.7732 6.61078 15.6623 6.61663L15.6511 6.61722C15.3397 6.63977 14.1646 6.92684 12.1013 9.67178C10.6105 11.6544 9.94352 13.2189 9.94352 13.8894V14.5346C9.94352 14.9891 10.195 15.1452 10.4864 15.3256C10.9765 15.6291 11.646 16.0445 11.875 18.1468C11.6503 18.2873 11.463 18.4825 11.3312 18.7132C11.1907 18.9603 11.1178 19.2413 11.1204 19.5249C11.1204 20.1953 11.5619 20.8128 12.2019 21.0479V24.8795C10.4934 24.1796 9.03462 23.0062 7.9748 21.4789C6.86469 19.8796 6.27667 18.002 6.27667 16.0506C6.27667 12.5841 8.1656 9.38471 11.2063 7.70045C11.3199 7.63714 11.4101 7.5374 11.4613 7.41772C11.5124 7.29804 11.5228 7.16361 11.4899 7.03785C11.4578 6.9121 11.3832 6.79935 11.2809 6.71956C11.1785 6.63977 11.051 6.59554 10.9209 6.59554H10.9201C10.8221 6.59554 10.7249 6.62069 10.6399 6.66839C8.96437 7.59378 7.56458 8.95454 6.59236 10.6032C5.62014 12.2519 5.10671 14.1357 5.10845 16.0497C5.10845 18.5007 5.91502 20.8068 7.43969 22.72C8.92014 24.5768 10.9981 25.9055 13.2921 26.4632L13.3996 26.4892V21.9663C13.6659 22.0556 13.9391 22.1294 14.214 22.1849V27.412C11.5107 27.0347 9.02855 25.6999 7.2142 23.6462C5.36343 21.5509 4.34351 18.8537 4.34351 16.0497C4.34264 14.6647 4.58982 13.3048 5.07896 12.0091C5.10585 11.9362 5.11799 11.8599 5.11539 11.7827C5.11278 11.7055 5.09457 11.6301 5.06248 11.5598C5.03039 11.4896 4.98529 11.4271 4.92805 11.3742C4.87081 11.3213 4.80577 11.2806 4.73292 11.2537C4.66006 11.2268 4.58374 11.2147 4.50656 11.2173C4.42937 11.2199 4.35392 11.2381 4.28367 11.2702C4.21342 11.3023 4.15097 11.3474 4.09807 11.4046C4.04516 11.4618 4.0044 11.5278 3.97752 11.5997C3.27936 13.4653 3.03045 15.4982 3.25681 17.4773C3.48317 19.4564 4.18566 21.38 5.28711 23.04C6.38855 24.7 7.88894 26.0946 9.62437 27.072C11.3607 28.0494 13.3302 28.6097 15.3207 28.6912L15.4108 28.6947V22.3349C15.5852 22.3427 15.8055 22.347 15.8193 22.347C15.8225 22.3468 15.8427 22.3463 15.8739 22.3456C15.9523 22.3439 16.1005 22.3405 16.2252 22.3349V28.6947L16.3154 28.6912C18.3058 28.6071 20.2745 28.0459 22.01 27.0676C23.7454 26.0885 25.2449 24.6948 26.3464 23.0348C27.4478 21.3748 28.1512 19.4521 28.3784 17.4729C28.6065 15.4938 28.3584 13.4609 27.6629 11.5945ZM13.5558 20.0467C13.6773 19.8654 13.7319 19.6469 13.7111 19.4301C13.6903 19.2132 13.594 19.0094 13.4405 18.8551C13.3529 18.7666 13.2497 18.6972 13.1343 18.6495C13.019 18.6018 12.8976 18.5775 12.7735 18.5775H12.7727C12.555 18.5775 12.3425 18.6539 12.1743 18.7917C12.006 18.9296 11.8898 19.1231 11.8473 19.3373C11.8048 19.5506 11.8378 19.7744 11.9401 19.966C12.0424 20.1577 12.2098 20.3095 12.411 20.3936C12.6122 20.4769 12.8377 20.4881 13.0459 20.4257C13.254 20.3624 13.4361 20.2288 13.5567 20.0476L13.5558 20.0467ZM19.7013 19.0837C19.5989 18.8912 19.4324 18.7394 19.2312 18.6561C19.1158 18.6076 18.9918 18.5833 18.8678 18.5833C18.7767 18.5833 18.6848 18.5963 18.5963 18.6232C18.3882 18.6856 18.2061 18.82 18.0847 19.0004C17.9632 19.1808 17.9077 19.4002 17.9285 19.6162C17.9494 19.833 18.0448 20.0368 18.1983 20.1912C18.2859 20.2797 18.3891 20.349 18.5044 20.3976C18.6198 20.4453 18.7412 20.4696 18.8661 20.4696H18.8669C19.0846 20.4696 19.2962 20.3941 19.4645 20.2562C19.6327 20.1184 19.749 19.9249 19.7923 19.7116C19.8348 19.4982 19.8027 19.2745 19.7004 19.0828L19.7013 19.0837Z" fill="#9BFFF3"></path><path fill-rule="evenodd" clip-rule="evenodd" d="M47.7435 12.9348C47.4227 12.3624 46.9817 11.9266 46.4204 11.6275C45.8591 11.3283 45.2043 11.1787 44.4559 11.1787C43.6273 11.1787 42.8922 11.3608 42.2508 11.725C41.6093 12.0892 41.1081 12.6096 40.7473 13.286C40.3864 13.9624 40.206 14.7429 40.206 15.6274C40.206 16.538 40.3864 17.3315 40.7473 18.0079C41.1215 18.6843 41.636 19.2047 42.2908 19.5689C42.9457 19.9331 43.7075 20.1152 44.5761 20.1152C45.6453 20.1152 46.5206 19.8421 47.2022 19.2957C47.8838 18.7364 48.3315 17.9624 48.5453 16.9738H43.7342V14.886H51.3117C51.3117 14.886 51.403 15.1615 51.403 16.0661C51.403 16.9707 51.3117 17.2665 51.3117 17.2665C51.1246 18.2161 50.7237 19.0941 50.109 19.9006C49.4942 20.7071 48.699 21.3575 47.7234 21.8518C46.7612 22.3331 45.6787 22.5738 44.4759 22.5738C43.1261 22.5738 41.9033 22.2811 40.8074 21.6957C39.7249 21.0973 38.8696 20.2713 38.2415 19.2177C37.6267 18.164 37.3193 16.9673 37.3193 15.6274C37.3193 14.2876 37.6267 13.0909 38.2415 12.0372C38.8696 10.9706 39.7249 10.1445 40.8074 9.55918C41.9033 8.96081 43.1194 8.66162 44.4559 8.66162C46.0328 8.66162 47.4027 9.03886 48.5654 9.79332C49.7281 10.5348 50.5299 11.5819 50.9709 12.9348H47.7435ZM55.5077 13.4943V22.4567H52.7012V13.4943H55.5077ZM60.8612 19.1201V13.8909H63.347V11.647H60.8612V8.83464H58.0347V11.647H56.7116V13.8909H58.0347V19.1006C58.0347 21.338 59.2174 22.4567 61.5829 22.4567H63.347V20.1543H62.044C61.6163 20.1543 61.3089 20.0762 61.1218 19.9201C60.9481 19.751 60.8612 19.4843 60.8612 19.1201ZM72.8629 22.4567L67.7711 16.3884V22.4567H64.9646V8.83723H67.7711V14.9445L72.8629 8.83723H76.2508L70.4774 15.5884L76.4111 22.4567H72.8629ZM81.351 11.9787C80.7764 12.3039 80.3086 12.7527 79.9478 13.325V11.647H77.1413V22.4567H79.9478V17.0713C79.9478 16.0697 80.1683 15.3673 80.6093 14.964C81.0637 14.5608 81.7319 14.3592 82.614 14.3592H83.3557V11.4909C82.6073 11.4909 81.9391 11.6535 81.351 11.9787ZM84.1234 17.0128C84.1234 15.9201 84.3439 14.951 84.7849 14.1055C85.2393 13.26 85.8474 12.6096 86.6091 12.1543C87.3843 11.699 88.2463 11.4714 89.1951 11.4714C90.0237 11.4714 90.7454 11.634 91.3601 11.9592C91.9883 12.2844 92.4894 12.6941 92.8636 13.1884V11.647H95.6902V22.4567H92.8636V20.8762C92.5028 21.3835 92.0016 21.8063 91.3601 22.1445C90.732 22.4697 90.0037 22.6323 89.1751 22.6323C88.2396 22.6323 87.3843 22.3981 86.6091 21.9299C85.8474 21.4616 85.2393 20.8047 84.7849 19.9591C84.3439 19.1006 84.1234 18.1185 84.1234 17.0128ZM92.8636 17.0518C92.8636 16.3884 92.73 15.8226 92.4627 15.3543C92.1954 14.873 91.8346 14.5088 91.3802 14.2616C90.9258 14.0014 90.438 13.8714 89.9168 13.8714C89.3956 13.8714 88.9145 13.9949 88.4735 14.2421C88.0324 14.4892 87.6716 14.8535 87.391 15.3348C87.1237 15.8031 86.99 16.3624 86.99 17.0128C86.99 17.6632 87.1237 18.2356 87.391 18.7299C87.6716 19.2112 88.0324 19.5819 88.4735 19.8421C88.9279 20.1022 89.409 20.2323 89.9168 20.2323C90.438 20.2323 90.9258 20.1087 91.3802 19.8616C91.8346 19.6014 92.1954 19.2372 92.4627 18.7689C92.73 18.2876 92.8636 17.7152 92.8636 17.0518ZM100.408 17.8518L104.177 22.4567H107.825L102.894 17.0713L107.785 11.647H104.136L100.408 16.2323V8.71358H97.6013V22.4567H100.408V17.8518ZM125.889 11.4909C127.212 11.4909 128.281 11.9006 129.097 12.7201C129.912 13.5266 130.319 14.6583 130.319 16.1152V22.4567H127.513V16.486C127.513 15.6274 127.292 14.9705 126.851 14.5153C126.41 14.047 125.809 13.8128 125.047 13.8128C124.272 13.8128 123.657 14.047 123.203 14.5153C122.762 14.9705 122.541 15.6274 122.541 16.486V22.4567H119.735V11.647H122.541V12.9933C122.916 12.525 123.39 12.1608 123.965 11.9006C124.553 11.6275 125.194 11.4909 125.889 11.4909ZM54.1197 11.9593C55.0278 11.9593 55.764 11.2427 55.764 10.3588C55.764 9.47489 55.0278 8.75834 54.1197 8.75834C53.2116 8.75834 52.4754 9.47489 52.4754 10.3588C52.4754 11.2427 53.2116 11.9593 54.1197 11.9593ZM113.116 11.388C115.028 11.5026 116.54 12.4086 117.649 13.9277L111.069 19.6944C112.325 20.877 114.135 20.5614 115.239 19.5686C116.191 18.7336 116.447 17.757 116.223 16.7861L118.233 15.0248C118.654 16.238 118.683 17.406 118.409 18.4503C118.149 19.5089 117.557 20.4427 116.708 21.1864C114.192 23.3913 110.575 23.007 108.547 20.8147C106.48 18.5795 106.48 15.0248 108.951 12.859C110.172 11.7892 111.655 11.294 113.116 11.388ZM110.437 14.4364C108.993 15.702 109.132 17.3965 109.773 18.2354L114.403 14.1779C113.639 13.498 111.853 13.1696 110.437 14.4364Z" fill="#9BFFF3"></path></svg>