<?xml version="1.0" standalone="no"?>
<!DOCTYPE svg PUBLIC "-//W3C//DTD SVG 20010904//EN"
 "http://www.w3.org/TR/2001/REC-SVG-20010904/DTD/svg10.dtd">
<svg version="1.0" xmlns="http://www.w3.org/2000/svg"
 width="360.000000pt" height="360.000000pt" viewBox="0 0 360.000000 360.000000"
 preserveAspectRatio="xMidYMid meet">

<g transform="translate(0.000000,360.000000) scale(0.100000,-0.100000)"
fill="#000000" stroke="none">
<path d="M1709 3208 c-252 -18 -477 -124 -540 -255 -21 -43 -23 -63 -25 -220
l-2 -173 336 -2 335 -3 0 -40 0 -40 -564 -5 c-558 -5 -564 -5 -599 -27 -253
-158 -330 -759 -144 -1114 48 -91 94 -142 156 -173 50 -25 59 -26 229 -26
l177 0 4 218 c3 206 4 219 27 262 57 107 195 212 294 224 23 3 213 8 423 10
250 4 392 10 415 18 84 28 175 115 216 206 37 79 44 179 41 535 l-3 312 -27
46 c-102 174 -399 272 -749 247z m-183 -261 c31 -28 37 -41 41 -83 5 -60 -18
-103 -70 -127 -45 -22 -74 -21 -116 1 -120 64 -75 242 60 242 42 0 55 -5 85
-33z"/>
</g>
</svg>
