<?xml version="1.0" standalone="no"?>
<!DOCTYPE svg PUBLIC "-//W3C//DTD SVG 20010904//EN"
 "http://www.w3.org/TR/2001/REC-SVG-20010904/DTD/svg10.dtd">
<svg version="1.0" xmlns="http://www.w3.org/2000/svg"
 width="471.000000pt" height="370.000000pt" viewBox="0 0 471.000000 370.000000"
 preserveAspectRatio="xMidYMid meet">

<g transform="translate(0.000000,370.000000) scale(0.100000,-0.100000)"
fill="#000000" stroke="none">
<path d="M2233 3487 c-130 -130 -193 -200 -193 -214 0 -18 12 -25 68 -43 141
-45 144 -48 81 -80 -22 -12 -39 -26 -36 -33 2 -7 43 -26 91 -44 110 -39 117
-45 87 -77 -32 -34 -22 -52 32 -60 39 -6 47 -11 56 -38 11 -30 12 -30 65 -26
30 2 66 12 81 22 l27 18 -21 15 c-12 8 -19 18 -16 23 3 5 34 23 69 40 91 43
95 51 46 90 -52 41 -45 50 65 80 44 11 94 30 112 41 29 18 33 26 33 61 0 39
-6 47 -172 215 -95 96 -185 181 -200 189 -62 32 -69 27 -275 -179z m337 76
c97 -73 120 -104 49 -68 -34 18 -49 10 -49 -27 0 -21 -4 -22 -31 -7 -17 9 -28
6 -60 -15 l-39 -26 -12 45 c-7 25 -15 45 -19 45 -3 0 -13 -18 -22 -40 -13 -33
-20 -40 -44 -40 -15 0 -38 -3 -50 -6 -21 -6 -23 -3 -23 27 0 24 10 45 33 71
34 40 134 117 153 118 6 0 57 -35 114 -77z m-167 -413 c31 -6 57 -16 57 -21 0
-5 -12 -7 -27 -3 -78 17 -103 26 -109 36 -5 7 -2 9 7 6 8 -3 40 -11 72 -18z"/>
<path d="M1631 3623 c-8 -14 -13 -15 -35 -5 -22 10 -27 9 -37 -9 -8 -15 -17
-19 -35 -15 -19 5 -25 2 -30 -19 -4 -18 -13 -25 -30 -25 -19 0 -24 -5 -24 -24
0 -17 -7 -26 -25 -30 -21 -5 -24 -11 -19 -30 4 -18 0 -27 -15 -35 -18 -10 -19
-15 -9 -36 10 -21 8 -28 -8 -39 -18 -14 -18 -15 -1 -34 15 -16 16 -25 8 -41
-9 -17 -8 -22 10 -31 15 -9 19 -18 15 -36 -6 -22 -5 -23 18 -13 30 14 56 6 56
-17 0 -10 -5 -14 -15 -10 -11 4 -15 -1 -15 -19 0 -26 7 -29 35 -19 12 5 13 9
5 14 -7 4 -9 13 -6 19 9 14 49 14 62 1 6 -6 10 -3 11 10 1 11 -8 27 -21 35
-33 22 -53 77 -66 178 -13 103 -6 122 57 153 59 29 223 27 280 -4 56 -29 65
-49 54 -109 -29 -149 -35 -174 -42 -178 -4 -3 -28 4 -53 15 l-46 19 0 -32 c0
-49 -11 -77 -29 -77 -14 -1 -14 -2 2 -11 25 -15 22 -47 -5 -52 l-23 -4 23 -2
c12 0 22 -5 22 -11 0 -14 -53 -12 -69 3 -11 10 -13 10 -7 0 5 -9 0 -13 -13
-13 -10 0 -22 6 -24 13 -4 10 -6 10 -6 0 -1 -7 -8 -13 -16 -13 -13 0 -14 -4
-5 -20 9 -17 14 -18 31 -9 16 8 25 7 40 -7 18 -16 20 -16 38 0 15 14 24 15 40
7 17 -9 22 -8 31 10 9 16 18 19 36 15 20 -5 26 -2 34 19 10 27 30 26 30 -1 0
-9 6 -14 13 -11 6 2 12 20 12 39 0 20 3 40 8 44 4 4 7 -14 7 -39 0 -47 17 -65
27 -28 3 11 13 21 24 24 30 8 25 55 -6 67 -30 11 -32 35 -5 50 17 9 18 14 9
31 -8 16 -7 25 8 41 17 19 17 20 -1 34 -16 11 -18 18 -8 39 10 21 9 26 -9 36
-15 8 -19 17 -15 35 5 19 2 25 -19 30 -18 4 -25 13 -25 30 0 19 -5 24 -24 24
-17 0 -26 7 -30 25 -5 21 -11 24 -30 19 -18 -4 -27 0 -35 15 -10 18 -15 19
-37 9 -22 -10 -27 -9 -35 5 -6 9 -14 17 -19 17 -5 0 -13 -8 -19 -17z m289
-458 c0 -8 -4 -15 -10 -15 -5 0 -10 7 -10 15 0 8 5 15 10 15 6 0 10 -7 10 -15z"/>
<path d="M3367 3390 c70 -42 88 -146 39 -221 l-28 -42 23 6 c13 4 31 7 39 7
12 1 12 3 -2 11 -16 9 -14 14 17 55 40 51 46 104 19 143 -18 25 -87 60 -119
61 -16 0 -13 -4 12 -20z"/>
<path d="M3085 3366 c-25 -8 -35 -14 -25 -18 12 -4 13 -9 2 -24 -7 -11 -21
-32 -32 -49 -30 -45 -26 -97 9 -133 28 -27 116 -60 129 -47 3 3 -1 5 -9 5 -25
0 -78 60 -89 101 -13 49 1 106 36 149 14 16 24 30 22 29 -1 0 -21 -6 -43 -13z"/>
<path d="M3194 3306 c-40 -40 -46 -92 -16 -119 22 -20 53 -24 34 -5 -18 18
-14 79 8 121 25 46 18 47 -26 3z"/>
<path d="M3287 3321 c3 -10 0 -28 -6 -40 -13 -23 -9 -26 18 -11 25 13 34 39
20 56 -17 21 -38 17 -32 -5z"/>
<path d="M3766 3222 c-15 -18 -15 -20 2 -35 10 -10 24 -17 31 -17 6 0 16 -11
21 -25 5 -14 21 -30 34 -35 32 -12 41 -27 26 -45 -19 -22 -39 -18 -50 10 -15
40 -23 29 -17 -24 4 -37 2 -53 -9 -62 -21 -17 -55 14 -36 33 26 26 1 143 -34
155 -5 2 -32 -19 -59 -47 l-50 -51 83 -81 82 -81 82 81 83 82 -80 80 c-44 44
-82 80 -86 80 -3 0 -13 -8 -23 -18z"/>
<path d="M4206 3224 c-4 -10 -2 -22 3 -27 15 -15 46 -3 46 18 0 26 -40 33 -49
9z"/>
<path d="M4313 3193 c-4 -10 -12 -22 -20 -26 -15 -9 -18 -37 -3 -37 6 0 10
-25 10 -55 0 -62 19 -81 71 -70 31 7 35 30 6 30 -27 0 -39 20 -35 61 2 31 7
39 22 39 28 0 31 23 4 27 -15 2 -24 11 -26 26 -4 26 -20 29 -29 5z"/>
<path d="M1580 3174 c0 -14 2 -15 17 -3 12 10 17 11 20 2 2 -7 12 -9 20 -6 14
6 14 8 -3 14 -32 13 -54 10 -54 -7z"/>
<path d="M4037 3142 c-19 -21 -22 -49 -7 -72 5 -9 5 -19 -2 -27 -6 -7 -8 -21
-5 -32 2 -10 0 -25 -4 -34 -7 -11 -3 -20 13 -31 48 -34 138 -8 138 40 0 28
-26 44 -75 44 -22 0 -34 4 -30 10 3 6 19 10 35 10 36 0 63 26 57 56 -2 14 2
25 10 28 30 12 -1 26 -56 26 -43 0 -62 -5 -74 -18z m78 -37 c0 -22 -31 -33
-47 -17 -17 17 -1 44 24 40 15 -2 23 -10 23 -23z m10 -130 c0 -5 -17 -11 -37
-13 -30 -3 -38 0 -38 13 0 13 8 16 38 13 20 -2 37 -7 37 -13z"/>
<path d="M4190 3151 c0 -6 5 -13 10 -16 6 -3 10 -28 10 -55 0 -27 -4 -52 -10
-55 -22 -13 -8 -25 29 -25 40 0 61 13 41 25 -5 3 -10 35 -10 71 l0 64 -35 0
c-19 0 -35 -4 -35 -9z"/>
<path d="M1611 3134 c0 -11 3 -14 6 -6 3 7 2 16 -1 19 -3 4 -6 -2 -5 -13z"/>
<path d="M2761 3071 c-21 -14 -5 -29 40 -36 43 -7 79 11 65 34 -8 13 -85 14
-105 2z"/>
<path d="M2226 3001 c-35 -39 13 -57 55 -21 21 17 22 21 9 30 -23 15 -45 12
-64 -9z"/>
<path d="M2720 2996 c0 -7 7 -19 15 -26 21 -17 51 6 34 26 -15 18 -49 18 -49
0z"/>
<path d="M3483 2956 c-12 -18 -39 -42 -61 -53 -30 -15 -38 -23 -31 -34 16 -26
9 -57 -18 -80 -26 -20 -26 -21 -5 -16 31 7 19 -8 -18 -23 -25 -10 -42 -10 -86
-1 -49 11 -75 31 -40 31 7 0 20 8 27 18 11 14 11 15 -1 5 -23 -21 -55 -15 -91
17 -40 35 -83 39 -99 10 -15 -29 11 -87 47 -101 15 -6 58 -26 94 -45 72 -37
153 -46 204 -22 21 9 31 9 46 0 43 -27 30 -9 -15 20 -27 18 -43 34 -36 36 6 2
17 -1 23 -7 6 -6 17 -11 24 -11 39 0 81 155 66 243 l-8 46 -22 -33z m-368
-136 c0 -22 -39 -19 -43 3 -3 15 1 18 20 15 12 -2 23 -10 23 -18z"/>
<path d="M3170 2892 c0 -36 3 -43 12 -34 7 7 20 12 30 12 24 0 23 3 -12 38
l-30 30 0 -46z"/>
<path d="M3330 2830 c-22 -17 -23 -19 -7 -25 25 -10 47 1 47 25 0 25 -8 25
-40 0z"/>
<path d="M3212 2823 c-6 -2 -10 -9 -7 -13 7 -11 35 -2 35 11 0 10 -8 10 -28 2z"/>
<path d="M4237 2782 c3 -12 2 -30 -2 -39 -5 -10 -9 -24 -9 -31 -3 -42 -157
-149 -200 -138 -20 5 -25 0 -34 -33 -7 -21 -12 -61 -12 -88 0 -239 303 -361
469 -189 28 29 30 34 12 29 -15 -4 -32 5 -61 31 -22 20 -43 36 -47 36 -3 0
-36 -16 -72 -37 -80 -45 -143 -50 -173 -14 -38 48 -10 119 57 141 41 14 64 8
126 -31 56 -35 74 -36 121 -4 56 38 87 32 101 -20 4 -11 5 19 3 66 -2 72 -7
93 -29 131 -32 55 -72 90 -141 125 -28 14 -65 39 -83 55 -28 27 -31 28 -26 10z
m140 -477 c8 -23 -2 -28 -25 -14 -17 10 -25 10 -46 -4 -22 -15 -26 -15 -26 -3
0 33 85 51 97 21z m-72 -69 c17 0 46 3 65 8 33 8 34 7 18 -10 -21 -21 -116
-31 -147 -15 -31 17 -27 35 7 25 15 -4 41 -8 57 -8z"/>
<path d="M595 2769 c4 -12 17 -31 28 -42 l22 -22 -28 -3 c-22 -3 -32 -12 -46
-45 -11 -25 -16 -56 -13 -75 4 -31 3 -32 -31 -32 -28 0 -44 -9 -83 -48 -27
-26 -56 -58 -64 -69 -9 -13 -31 -24 -55 -28 -37 -5 -42 -4 -58 25 -10 16 -22
30 -28 30 -5 0 -9 -30 -9 -66 0 -131 18 -138 286 -119 110 8 202 15 205 15 4
0 12 60 19 133 6 72 16 165 21 205 7 57 6 80 -5 107 -18 43 -42 55 -111 55
-53 0 -56 -1 -50 -21z"/>
<path d="M3280 2780 c8 -5 20 -10 25 -10 6 0 3 5 -5 10 -8 5 -19 10 -25 10 -5
0 -3 -5 5 -10z"/>
<path d="M453 2761 c-80 -37 -186 -154 -199 -221 -5 -24 -1 -36 16 -55 28 -30
51 -31 105 -5 52 25 160 136 180 184 42 100 -2 142 -102 97z"/>
<path d="M1734 2738 l-19 -23 23 19 c21 18 27 26 19 26 -2 0 -12 -10 -23 -22z"/>
<path d="M2122 2669 c-7 -10 -12 -57 -13 -106 0 -49 -4 -113 -9 -143 -11 -77
2 -90 89 -90 36 0 104 -4 150 -10 106 -12 111 -8 112 97 0 43 4 110 8 148 5
44 4 75 -2 83 -5 7 -32 12 -63 12 -46 0 -159 12 -235 24 -17 3 -29 -1 -37 -15z
m128 -110 c-25 -11 -58 -32 -73 -47 l-28 -27 14 34 c17 41 49 60 97 60 l35 0
-45 -20z m30 -25 c0 -3 -13 -17 -30 -31 -23 -19 -30 -33 -30 -60 0 -30 -2 -34
-15 -23 -24 20 -18 59 14 91 26 26 61 39 61 23z m70 -14 c0 -13 -7 -20 -20
-20 -13 0 -20 7 -20 20 0 13 7 20 20 20 13 0 20 -7 20 -20z m-50 -64 c13 -26
13 -35 3 -44 -17 -17 -47 29 -38 58 9 28 17 25 35 -14z"/>
<path d="M1712 2648 l-22 -22 66 -67 c58 -58 66 -71 60 -94 -8 -30 -32 -43
-55 -28 -13 8 -23 5 -45 -12 l-28 -22 27 -22 c15 -11 42 -21 60 -21 19 0 39
-8 50 -20 33 -36 50 -26 53 32 1 29 8 55 15 60 9 6 9 8 -2 8 -8 0 -11 6 -7 15
6 15 -1 25 -81 117 -47 53 -52 64 -26 54 13 -5 11 0 -6 18 -30 32 -31 32 -59
4z"/>
<path d="M1105 2626 c20 -18 36 -25 50 -22 11 4 29 9 41 12 13 3 28 -1 38 -11
9 -9 16 -13 16 -9 0 4 9 -1 20 -11 11 -10 20 -31 20 -46 0 -57 -90 -94 -217
-87 -86 4 -126 19 -156 59 -16 22 -17 30 -7 45 6 11 10 12 7 4 -2 -8 0 -26 5
-40 11 -30 22 -16 32 42 7 40 30 54 70 44 15 -4 25 1 34 14 11 18 10 19 -21
14 -17 -4 -55 -17 -84 -29 -61 -27 -76 -59 -48 -101 46 -70 229 -95 330 -44
94 47 96 113 5 157 -25 12 -72 25 -105 29 l-59 7 29 -27z m73 -3 c-10 -2 -26
-2 -35 0 -10 3 -2 5 17 5 19 0 27 -2 18 -5z"/>
<path d="M2793 2600 c0 -25 2 -35 4 -22 2 12 2 32 0 45 -2 12 -4 2 -4 -23z"/>
<path d="M1066 2595 c-6 -23 -8 -24 -22 -10 -21 20 -61 19 -72 -2 -5 -10 -12
-37 -16 -60 -5 -35 -3 -43 9 -43 8 0 15 7 15 16 0 9 6 14 13 11 6 -2 21 -1 32
3 11 4 25 3 32 -2 15 -12 33 17 33 52 0 6 7 10 15 10 8 0 15 -5 15 -11 0 -5
-4 -8 -9 -5 -5 4 -6 -5 -2 -21 10 -38 24 -35 33 7 5 27 3 38 -9 47 -9 7 -20
10 -24 7 -5 -3 -9 2 -9 10 0 26 -27 18 -34 -9z m-38 -42 c-4 -20 -38 -31 -38
-13 0 6 4 9 9 5 5 -3 13 0 17 6 4 7 3 9 -4 5 -6 -3 -13 -2 -17 4 -3 6 3 10 15
10 15 0 20 -5 18 -17z"/>
<path d="M3546 2613 c-12 -13 -5 -50 12 -65 33 -28 45 -32 39 -12 -3 11 -8 31
-11 45 -6 26 -28 44 -40 32z"/>
<path d="M1162 2579 c-5 -13 -12 -41 -16 -61 -6 -31 -4 -38 9 -38 8 0 15 7 15
15 0 9 6 15 13 13 28 -5 57 15 66 45 9 31 9 31 10 5 1 -25 -37 -68 -61 -68 -5
0 -16 -7 -24 -15 -19 -19 -13 -19 33 0 50 21 73 43 73 71 0 30 -12 38 -77 50
-28 5 -34 3 -41 -17z m51 -15 c9 -10 -4 -34 -19 -34 -8 0 -14 9 -14 20 0 19
19 27 33 14z"/>
<path d="M1190 2549 c0 -5 5 -7 10 -4 6 3 10 8 10 11 0 2 -4 4 -10 4 -5 0 -10
-5 -10 -11z"/>
<path d="M2873 2575 c-10 -10 -9 -15 4 -19 21 -8 27 -1 16 17 -6 12 -10 13
-20 2z"/>
<path d="M1486 2539 c-9 -13 -16 -40 -16 -60 0 -25 -6 -41 -19 -50 -11 -8 -22
-25 -27 -39 -6 -22 -5 -23 9 -12 12 11 27 11 75 2 71 -14 77 -12 163 65 60 54
95 73 68 38 -7 -10 -2 -8 11 5 l24 22 -21 22 -22 21 -69 -61 c-38 -34 -77 -62
-85 -62 -26 0 -48 40 -36 63 9 16 6 24 -14 44 l-24 25 -17 -23z"/>
<path d="M1086 2503 c-4 -10 -14 -13 -29 -9 -26 6 -67 -2 -67 -15 0 -12 58
-21 109 -17 l43 3 -25 27 c-21 22 -26 24 -31 11z"/>
<path d="M2796 2451 c-3 -5 1 -14 9 -21 13 -10 15 -9 15 9 0 21 -14 28 -24 12z"/>
<path d="M3290 2336 c0 -65 3 -85 15 -90 13 -4 15 8 15 78 0 65 -3 85 -15 90
-13 4 -15 -8 -15 -78z"/>
<path d="M3573 2413 c-9 -3 -13 -31 -13 -91 0 -113 21 -98 23 17 1 44 2 81 2
80 0 0 -6 -3 -12 -6z"/>
<path d="M3370 2294 l0 -89 34 -19 c34 -18 36 -18 68 1 33 19 33 20 36 102 3
75 2 83 -13 77 -9 -3 -19 -6 -21 -6 -2 0 -4 -33 -4 -72 0 -81 -8 -102 -36 -96
-16 3 -19 14 -22 79 -2 61 -7 80 -22 94 -20 18 -20 17 -20 -71z"/>
<path d="M100 2095 c0 -148 5 -158 48 -95 39 58 22 174 -32 219 -14 12 -16 0
-16 -124z"/>
<path d="M2500 2216 c-6 -8 -10 -25 -8 -38 2 -19 9 -23 38 -23 31 0 35 3 38
29 5 42 -41 64 -68 32z m50 -26 c0 -13 -7 -20 -20 -20 -19 0 -27 20 -13 33 13
14 33 6 33 -13z"/>
<path d="M2587 2223 c-11 -10 -8 -93 3 -93 6 0 10 4 10 9 0 5 10 11 23 13 16
2 23 11 25 32 4 29 -10 46 -39 46 -9 0 -19 -3 -22 -7z m41 -35 c-5 -32 -28
-35 -28 -4 0 17 5 26 16 26 10 0 14 -7 12 -22z"/>
<path d="M2670 2216 c-6 -8 -10 -25 -8 -38 2 -19 10 -23 38 -25 19 -1 26 1 15
4 -34 9 -41 23 -12 23 20 0 27 5 27 19 0 30 -39 41 -60 17z m37 -12 c-3 -3
-12 -4 -19 -1 -8 3 -5 6 6 6 11 1 17 -2 13 -5z"/>
<path d="M2747 2224 c-11 -11 -8 -62 3 -69 6 -4 10 7 10 25 0 25 4 31 18 28
11 -2 16 -11 14 -25 -2 -12 2 -24 8 -28 8 -5 10 5 8 31 -3 33 -7 39 -28 42
-14 2 -29 0 -33 -4z"/>
<path d="M2833 2224 c-15 -7 -18 -74 -3 -74 6 0 10 14 10 30 0 20 5 30 15 30
10 0 15 -10 15 -30 0 -16 5 -30 10 -30 6 0 10 14 10 30 0 17 5 30 10 30 6 0
10 -11 10 -24 0 -14 5 -28 11 -31 7 -5 9 6 7 31 -3 38 -4 39 -43 41 -22 1 -46
0 -52 -3z"/>
<path d="M2950 2210 c-6 -12 -8 -30 -5 -41 5 -16 14 -19 38 -17 27 3 33 8 35
32 6 46 -47 65 -68 26z m53 -14 c7 -18 -1 -26 -25 -26 -18 0 -25 20 -11 33 11
12 31 8 36 -7z"/>
<path d="M3038 2224 c-12 -11 -10 -74 2 -74 6 0 10 7 10 17 0 15 1 15 18 0 25
-23 39 -22 19 1 -11 12 -13 22 -7 32 16 25 11 34 -9 16 -18 -16 -20 -16 -23
-1 -1 9 -6 13 -10 9z"/>
<path d="M3111 2216 c-8 -10 -11 -26 -7 -41 6 -22 11 -26 39 -23 29 3 32 6 32
38 0 30 -4 35 -26 38 -14 2 -31 -4 -38 -12z m54 -26 c0 -8 -10 -16 -22 -18
-22 -3 -32 16 -16 32 12 11 38 2 38 -14z"/>
<path d="M32 2079 c3 -37 12 -67 28 -89 13 -18 25 -29 27 -23 4 11 -42 152
-53 162 -4 3 -4 -19 -2 -50z"/>
<path d="M968 2035 c-3 -73 -2 -75 20 -75 22 0 22 1 7 17 -13 12 -16 30 -13
75 2 32 0 58 -4 58 -3 0 -8 -34 -10 -75z"/>
<path d="M1059 2094 c21 -15 23 -23 18 -67 -4 -45 -3 -48 9 -32 29 39 3 115
-38 115 -7 0 -2 -7 11 -16z"/>
<path d="M1148 2036 c-3 -69 -1 -76 16 -76 14 0 16 3 8 13 -6 7 -11 39 -11 71
0 85 -9 80 -13 -8z"/>
<path d="M1218 2084 c3 -15 8 -22 14 -16 9 9 1 42 -12 42 -4 0 -5 -12 -2 -26z"/>
<path d="M2248 2053 c-6 -60 -27 -107 -52 -111 -12 -3 -37 16 -73 53 -40 41
-58 54 -66 46 -8 -8 1 -24 35 -59 87 -89 112 -179 63 -227 -22 -23 -32 -25
-107 -25 -90 0 -132 14 -213 70 -42 29 -65 32 -65 10 0 -6 32 -26 70 -45 73
-37 90 -56 73 -84 -11 -18 -84 -76 -105 -84 -10 -3 -10 -7 -1 -17 9 -10 18 -7
45 15 52 44 167 95 213 95 114 0 209 -117 191 -234 -15 -88 -81 -145 -135
-115 -33 19 -69 84 -73 132 -1 27 -7 37 -19 37 -29 0 -29 -11 -1 -91 14 -41
23 -83 19 -92 -9 -25 -67 -22 -160 8 -104 33 -218 50 -228 33 -13 -20 -2 -25
75 -31 82 -7 156 -32 156 -52 0 -18 -42 -47 -123 -83 -65 -30 -86 -50 -73 -71
4 -6 28 4 60 24 29 19 82 44 117 56 125 44 295 22 330 -43 18 -33 24 -292 10
-446 -30 -311 -116 -591 -213 -691 l-30 -31 472 0 472 0 -31 26 c-76 64 -170
242 -218 414 -67 240 -71 456 -12 638 29 88 60 122 112 122 84 0 159 -73 182
-177 3 -18 11 -33 16 -33 5 0 6 12 2 28 -4 15 -8 47 -8 72 l0 45 47 3 c25 2
73 -4 106 -12 73 -19 72 -19 72 -3 0 9 -29 20 -82 31 -186 40 -318 93 -318
126 0 30 82 107 143 136 61 28 85 29 190 9 92 -18 97 -18 97 -6 0 5 -32 17
-70 26 -39 9 -73 21 -76 26 -2 5 22 43 55 85 34 42 58 80 55 85 -12 20 -34 6
-74 -45 -49 -65 -100 -106 -131 -106 -21 0 -21 3 -16 73 3 39 9 82 12 95 5 16
3 22 -7 22 -10 0 -19 -22 -28 -72 -15 -85 -28 -115 -77 -169 -48 -54 -104 -81
-178 -86 -55 -5 -62 -3 -84 21 -31 33 -39 107 -17 160 l16 39 84 -7 c69 -5 85
-3 90 9 4 12 -3 15 -32 15 -46 1 -111 15 -124 28 -10 10 50 125 143 279 21 33
35 64 32 67 -13 13 -31 5 -37 -17 -9 -37 -64 -107 -84 -107 -21 0 -43 36 -67
108 -10 31 -22 51 -28 49 -14 -5 -14 -1 19 -115 27 -96 26 -123 -12 -188 -34
-61 -88 -104 -128 -104 -46 0 -77 28 -118 107 -54 104 -76 224 -59 318 9 48 8
62 -3 73 -11 11 -14 6 -18 -35z"/>
<path d="M4334 2077 c-3 -8 4 -30 15 -48 12 -19 21 -30 21 -26 0 5 -8 22 -17
38 -22 36 -13 45 26 25 16 -9 37 -16 45 -16 28 0 93 -68 115 -120 15 -35 31
-54 54 -65 27 -14 29 -14 13 -1 -10 8 -22 17 -26 18 -4 2 -21 30 -39 64 -35
66 -67 95 -128 117 -21 8 -46 18 -55 22 -12 5 -20 2 -24 -8z"/>
<path d="M740 2058 c0 -4 5 -8 11 -8 6 0 9 -10 7 -22 -5 -34 -33 -29 -33 5 1
15 -4 26 -10 24 -13 -5 -19 -34 -9 -55 12 -29 11 -52 -3 -63 -10 -9 -10 -15
-2 -25 17 -20 63 -17 84 6 24 27 13 50 -25 50 -33 0 -41 15 -11 23 10 2 25 18
33 35 15 30 15 30 -13 34 -16 3 -29 1 -29 -4z m29 -107 c21 -13 5 -41 -23 -41
-30 0 -42 16 -26 35 14 17 29 19 49 6z"/>
<path d="M235 2010 c0 -47 2 -50 25 -50 18 0 21 3 12 9 -9 5 -13 22 -10 47 2
28 -1 40 -12 42 -12 2 -15 -9 -15 -48z"/>
<path d="M296 2045 c12 -8 15 -22 12 -48 -3 -29 0 -37 12 -37 11 0 15 11 15
42 0 36 3 43 20 43 17 0 20 -7 20 -43 0 -32 4 -42 16 -42 12 0 15 7 12 28 -11
73 -9 70 -68 70 -45 -1 -52 -3 -39 -13z"/>
<path d="M444 2035 c-15 -23 -15 -27 0 -50 29 -43 96 -21 96 31 0 48 -68 62
-96 19z m66 1 c18 -23 8 -61 -17 -64 -17 -3 -26 3 -33 22 -5 14 -7 33 -4 41 8
19 38 19 54 1z"/>
<path d="M568 2048 c7 -7 12 -24 12 -38 0 -14 -5 -31 -12 -38 -9 -9 -7 -12 13
-12 23 0 24 3 21 50 -3 43 -7 50 -25 50 -16 0 -18 -3 -9 -12z"/>
<path d="M622 2053 c23 -6 34 -51 19 -75 -10 -16 -8 -18 16 -18 21 0 24 3 15
12 -7 7 -12 29 -12 50 0 35 -2 38 -27 37 -17 -1 -21 -3 -11 -6z"/>
<path d="M824 2036 c-15 -24 -15 -28 0 -51 33 -50 110 -14 90 43 -14 39 -66
44 -90 8z m66 -1 c18 -21 4 -65 -20 -65 -24 0 -43 34 -35 60 7 24 37 26 55 5z"/>
<path d="M1215 2037 c12 -10 16 -22 13 -41 -4 -21 -3 -24 8 -15 20 16 17 47
-5 59 -28 14 -38 12 -16 -3z"/>
<path d="M4370 1981 c0 -6 4 -13 10 -16 6 -3 7 1 4 9 -7 18 -14 21 -14 7z"/>
<path d="M3374 1969 c-3 -6 1 -18 9 -27 13 -12 19 -13 31 -3 8 7 12 19 9 27
-6 17 -39 19 -49 3z"/>
<path d="M3296 1942 c-9 -14 9 -27 39 -29 20 -1 38 -11 56 -32 38 -46 65 -39
39 10 -6 10 -20 19 -30 19 -11 0 -28 9 -37 20 -17 20 -57 27 -67 12z"/>
<path d="M4413 1884 c-3 -10 -11 -22 -17 -26 -7 -5 -4 -8 7 -8 9 0 17 5 17 11
0 8 6 7 17 -2 15 -13 15 -12 3 11 -18 35 -19 35 -27 14z"/>
<path d="M1327 1879 c7 -7 15 -10 18 -7 3 3 -2 9 -12 12 -14 6 -15 5 -6 -5z"/>
<path d="M3177 1854 c-14 -15 -6 -34 14 -34 14 0 19 5 17 17 -3 18 -20 27 -31
17z"/>
<path d="M4636 1837 c3 -10 9 -15 12 -12 3 3 0 11 -7 18 -10 9 -11 8 -5 -6z"/>
<path d="M1513 1808 c-40 -24 -42 -35 -8 -44 29 -7 55 10 55 37 0 27 -11 28
-47 7z"/>
<path d="M3385 1794 c-11 -14 -36 -29 -55 -33 -21 -4 -36 -14 -38 -24 -5 -26
59 -23 76 3 7 11 23 20 35 20 20 0 47 32 47 55 0 16 -48 0 -65 -21z"/>
<path d="M4600 1804 c8 -8 23 -20 34 -25 21 -10 21 -10 1 6 -11 9 -19 21 -17
26 1 5 -5 9 -14 9 -14 0 -14 -3 -4 -16z"/>
<path d="M3750 1720 c0 -40 4 -70 10 -70 6 0 10 25 10 55 0 30 4 55 8 55 5 0
19 -24 33 -52 34 -74 52 -74 88 4 l29 63 1 -63 c1 -46 4 -63 14 -59 8 2 12 25
12 68 0 59 -2 64 -22 67 -19 3 -27 -7 -50 -52 -15 -31 -30 -56 -33 -56 -3 0
-16 25 -29 55 -19 45 -28 55 -47 55 -23 0 -24 -3 -24 -70z"/>
<path d="M1279 1753 c-13 -16 -12 -17 4 -4 9 7 17 15 17 17 0 8 -8 3 -21 -13z"/>
<path d="M573 1736 c-87 -28 -176 -107 -214 -189 -30 -67 -22 -78 10 -12 48
101 124 163 230 191 173 44 347 -58 407 -239 13 -39 14 -39 9 -7 -14 93 -96
193 -193 238 -68 31 -182 40 -249 18z"/>
<path d="M3990 1710 c0 -34 4 -42 26 -50 14 -6 39 -10 55 -10 16 0 29 -4 29
-10 0 -5 -25 -10 -55 -10 -30 0 -55 -4 -55 -10 0 -13 96 -13 121 0 15 9 19 22
19 70 0 47 -3 60 -15 60 -11 0 -15 -11 -15 -41 l0 -40 -42 3 c-42 3 -43 4 -46
41 -4 50 -22 48 -22 -3z"/>
<path d="M1432 1684 c23 -23 36 -28 78 -28 27 0 54 4 60 10 6 5 -9 8 -41 6
-37 -3 -58 1 -87 18 l-37 22 27 -28z"/>
<path d="M577 1686 c-49 -18 -112 -62 -132 -92 l-15 -24 49 0 c52 0 75 -14 41
-25 -11 -3 -20 -10 -20 -14 0 -7 84 -261 96 -291 6 -15 64 139 64 171 0 10 -9
42 -21 72 -16 42 -27 57 -47 62 -51 13 -4 26 81 23 81 -3 114 -16 70 -28 -16
-5 -14 -19 33 -159 l51 -154 23 69 c33 98 32 150 -5 218 -33 61 -30 80 14 102
l22 12 -30 21 c-69 50 -192 66 -274 37z"/>
<path d="M3963 1520 c-47 -11 -63 -28 -63 -66 l0 -33 62 -3 c38 -2 63 -8 66
-15 3 -10 -22 -13 -102 -13 -96 0 -107 -2 -133 -24 -26 -23 -28 -29 -28 -106
0 -77 2 -83 28 -106 15 -13 39 -24 53 -24 21 0 24 4 24 39 0 28 8 49 25 69 24
29 28 30 126 34 86 2 103 6 115 22 18 26 19 175 1 200 -22 30 -106 42 -174 26z
m7 -35 c17 -20 5 -45 -20 -45 -11 0 -23 7 -26 15 -6 15 11 45 26 45 4 0 13 -7
20 -15z"/>
<path d="M947 1484 c-4 -21 -31 -108 -61 -191 -29 -84 -50 -153 -46 -153 16 0
93 94 113 138 23 51 29 176 10 221 -9 24 -10 23 -16 -15z"/>
<path d="M385 1465 c-19 -122 20 -235 102 -303 24 -19 45 -33 48 -31 5 5 -124
360 -135 373 -5 4 -12 -13 -15 -39z"/>
<path d="M1336 1489 c-24 -19 -26 -26 -26 -101 0 -69 -3 -86 -23 -112 -31 -41
-78 -146 -71 -157 3 -5 11 -9 19 -9 8 0 28 -21 46 -46 22 -33 34 -43 42 -35 8
8 1 22 -26 49 -21 22 -37 48 -37 61 0 21 24 82 53 136 6 11 11 47 12 79 0 40
4 61 13 64 7 2 16 -5 19 -17 6 -23 23 -29 23 -7 0 7 7 19 15 26 24 20 46 -5
42 -49 -2 -24 7 -58 27 -101 21 -45 32 -87 36 -135 4 -62 7 -70 26 -73 15 -2
29 7 44 28 35 49 26 81 -62 219 -10 15 -22 56 -26 91 -7 50 -15 68 -36 87 -34
29 -75 29 -110 2z"/>
<path d="M332 1450 c0 -14 2 -19 5 -12 2 6 2 18 0 25 -3 6 -5 1 -5 -13z"/>
<path d="M3420 1449 c0 -6 -9 -23 -20 -37 -15 -18 -19 -34 -15 -54 9 -41 -2
-64 -42 -89 -53 -33 -76 -105 -56 -177 5 -21 10 -23 42 -18 l36 5 -34 -15
c-18 -8 -31 -17 -28 -20 3 -3 14 -1 25 5 33 17 39 12 12 -8 -24 -19 -24 -20
-6 -40 22 -24 48 -28 40 -6 -4 8 -2 15 3 15 15 0 33 -23 33 -42 0 -10 5 -18
10 -18 6 0 10 5 10 10 0 6 7 10 15 10 8 0 15 -4 15 -10 0 -5 5 -10 10 -10 6 0
10 11 10 24 0 13 7 26 15 30 9 3 15 0 15 -9 0 -22 13 -18 40 10 13 14 19 25
13 25 -6 0 -13 -3 -16 -7 -2 -5 -3 -3 -1 4 1 6 0 14 -4 18 -4 4 -8 11 -8 16
-1 5 -2 11 -3 13 0 3 -14 -9 -30 -25 -39 -38 -74 -38 -113 1 -31 31 -32 42 -8
105 10 27 40 35 40 11 0 -25 17 -27 45 -4 31 24 40 17 51 -40 5 -23 14 -36 32
-43 36 -14 50 -5 58 36 10 57 -10 109 -59 147 -55 42 -53 39 -51 98 1 47 -2
53 -31 76 -35 27 -45 29 -45 13z m16 -60 c10 -17 -13 -36 -27 -22 -12 12 -4
33 11 33 5 0 12 -5 16 -11z m42 -41 c-6 -18 -28 -21 -28 -4 0 9 7 16 16 16 9
0 14 -5 12 -12z m-128 -328 c0 -5 -5 -10 -11 -10 -5 0 -7 5 -4 10 3 6 8 10 11
10 2 0 4 -4 4 -10z"/>
<path d="M1023 1400 c0 -25 2 -35 4 -22 2 12 2 32 0 45 -2 12 -4 2 -4 -23z"/>
<path d="M1400 1390 c0 -19 11 -26 23 -14 8 8 -3 34 -14 34 -5 0 -9 -9 -9 -20z"/>
<path d="M1330 1385 c0 -8 5 -15 10 -15 6 0 10 7 10 15 0 8 -4 15 -10 15 -5 0
-10 -7 -10 -15z"/>
<path d="M334 1337 c13 -103 95 -209 201 -259 142 -66 316 -23 415 102 33 42
71 127 69 158 0 9 -6 -2 -14 -25 -43 -139 -162 -237 -304 -250 -156 -14 -312
98 -356 257 -12 42 -14 46 -11 17z"/>
<path d="M638 1238 c-25 -68 -41 -127 -37 -132 11 -12 149 -10 161 2 6 6 -5
51 -33 128 -23 66 -43 120 -44 122 -1 1 -23 -53 -47 -120z"/>
<path d="M3550 1050 c19 -13 30 -13 30 0 0 6 -10 10 -22 10 -19 0 -20 -2 -8
-10z"/>
<path d="M1455 1023 c-16 -20 -33 -27 -72 -30 -39 -4 -52 -10 -56 -24 -3 -10
-16 -23 -29 -28 -16 -7 -18 -10 -6 -10 9 -1 19 3 23 8 3 5 30 13 59 16 41 5
63 3 87 -9 18 -9 39 -16 48 -15 9 1 5 4 -9 8 -23 7 -25 12 -23 59 1 29 1 52 0
51 -1 0 -11 -12 -22 -26z"/>
<path d="M3320 901 c0 -13 -7 -12 124 -14 70 -2 104 2 115 11 14 12 14 13 -4
6 -11 -4 -28 -6 -37 -5 -10 1 -43 2 -73 2 -30 0 -63 -1 -72 -2 -10 -1 -26 1
-35 6 -11 4 -18 3 -18 -4z"/>
</g>
</svg>
